<?xml version="1.0" encoding="utf-8"?>
<!-- Svg Vector Icons : http://www.onlinewebfonts.com/icon -->
<!DOCTYPE svg PUBLIC "-//W3C//DTD SVG 1.1//EN" "http://www.w3.org/Graphics/SVG/1.1/DTD/svg11.dtd">
<svg version="1.1" xmlns="http://www.w3.org/2000/svg" xmlns:xlink="http://www.w3.org/1999/xlink" x="0px" y="0px" viewBox="0 0 1000 1000" enable-background="new 0 0 1000 1000" xml:space="preserve">
<metadata> Svg Vector Icons : http://www.onlinewebfonts.com/icon </metadata>
<g><g transform="translate(0.000000,511.000000) scale(0.100000,-0.100000)"><path d="M2587.3,4354c-435.5-54.4-957.7-269.7-1321.5-542C649.7,3346.8,226.5,2616.7,122.5,1839.7C40.9,1226,184.4,513.3,498.7-36.1l106.4-185.6h655.8h658.3l732.5-732.5l735-735l27.2,133.6c14.8,74.2,64.3,346.5,113.8,603.8c47,259.8,99,529.6,113.8,601.3l24.7,128.7H4228h561.8l381.1-1046.8c210.4-574.1,391-1071.5,403.4-1103.7c12.4-32.2,24.7-54.5,32.2-49.5c7.4,9.9,727.6,3939.7,732.5,4001.5c0,27.2,66.8-146,381.1-1002.2l292-799.3l987.4-5l989.9-7.4l-185.6-247.5c-705.3-945.3-1955-2061.4-3464.5-3093.3c-170.8-116.3-321.7-210.4-336.6-210.4c-61.9,0-984.9,653.3-1534.3,1083.9c-420.7,331.6-720.1,586.5-1116.1,952.7l-284.6,264.8l-222.7-2.5h-222.7l297-287.1C2671.5-2500.9,3542.6-3201.2,4525-3862c240-163.3,452.9-294.5,475.1-294.5c89.1,0,1267,831.5,1905.5,1346.2c678.1,546.9,1427.9,1254.7,1821.3,1722.4c240,287.1,653.3,841.4,762.2,1024.5l89.1,150.9L8407.8,95l-1173,5l-492.5,1348.7c-363.8,997.3-497.4,1333.9-509.8,1291.8c-9.9-29.7-170.7-928-356.3-1997.1C5688.1-325.7,5529.7-1209.1,5519.8-1219c-9.9-9.9-126.2,282.1-259.8,650.8L5015,100h-598.9h-598.9l-141.1,396c-79.2,217.8-146,393.5-151,391c-7.4-9.9-331.6-1843.6-331.6-1883.2c0-14.8-252.4,225.2-564.2,534.5L2067.6,100h-645.9H775.9L671.9,320.2C474,748.4,375,1273,422,1654.1c138.6,1121,702.8,1937.7,1559,2242.1c544.4,195.5,1168.1,212.8,1695.2,47c428.1-136.1,752.3-344,1106.2-710.2l217.8-222.7l227.7,235.1c274.7,279.6,477.6,430.6,791.9,579.1c546.9,259.8,1212.6,304.4,1843.6,121.3c984.9-282.1,1606.1-1153.2,1727.3-2415.3l17.3-168.3h146h146v168.3c0,556.8-237.6,1234.9-598.9,1715c-591.4,784.5-1571.4,1217.5-2519.2,1113.6c-608.8-64.3-1118.6-292-1593.7-707.8l-188.1-163.3l-188.1,163.3C4171.1,4212.9,3399,4455.4,2587.3,4354z"/></g></g>
</svg>